<svg viewBox="0 0 313 65" fill="none" xmlns="http://www.w3.org/2000/svg">
    <path d="M111.694 42.2V49.24H113.142V52.6H111.292V51H104.052V42.12H105.983V49.16H109.764V42.12L111.694 42.2Z"
          fill="#1F3462"/>
    <path
        d="M122.956 47.4H115.877C116.038 48.04 116.36 48.6 116.843 48.92C117.325 49.32 117.969 49.48 118.693 49.48C119.739 49.48 120.463 49.08 121.026 48.36L122.635 49.32C121.75 50.6 120.463 51.24 118.693 51.24C117.245 51.24 116.119 50.84 115.153 49.96C114.269 49.08 113.786 47.96 113.786 46.6C113.786 45.32 114.188 44.2 115.073 43.32C115.958 42.44 117.084 41.96 118.452 41.96C119.739 41.96 120.784 42.44 121.669 43.32C122.474 44.2 122.956 45.32 122.956 46.6C123.037 46.84 122.956 47.16 122.956 47.4ZM115.797 45.88H121.026C120.865 45.16 120.623 44.68 120.141 44.28C119.658 43.88 119.095 43.72 118.452 43.72C117.728 43.72 117.164 43.88 116.682 44.28C116.28 44.68 115.958 45.16 115.797 45.88Z"
        fill="#1F3462"/>
    <path d="M130.679 45.72V42.2H132.61V51.08H130.679V47.56H126.576V51.08H124.646V42.2H126.576V45.72H130.679Z"
          fill="#1F3462"/>
    <path d="M133.896 42.2H141.619V44.04H138.723V51.08H136.792V44.04H133.896V42.2Z" fill="#1F3462"/>
    <path
        d="M147.974 41.96C149.18 41.96 150.226 42.44 151.111 43.32C151.996 44.2 152.398 45.32 152.398 46.6C152.398 47.88 151.996 49 151.111 49.88C150.226 50.76 149.18 51.24 147.974 51.24C146.606 51.24 145.561 50.76 144.837 49.72V53.96H142.906V42.12H144.837V43.4C145.641 42.44 146.687 41.96 147.974 41.96ZM145.721 48.68C146.285 49.24 146.928 49.48 147.733 49.48C148.537 49.48 149.18 49.24 149.744 48.68C150.307 48.12 150.548 47.48 150.548 46.68C150.548 45.88 150.307 45.16 149.744 44.68C149.18 44.12 148.537 43.88 147.733 43.88C146.928 43.88 146.285 44.12 145.721 44.68C145.158 45.24 144.917 45.88 144.917 46.68C144.917 47.4 145.158 48.12 145.721 48.68Z"
        fill="#1F3462"/>
    <path
        d="M166.475 42.2V49.24H167.682V52.6H165.832V51H159.718V52.6H157.868V49.24H158.994C159.557 48.52 159.799 47.4 159.799 46.04V42.2H166.475ZM161.005 49.24H164.625V43.96H161.649V46.04C161.569 47.32 161.408 48.36 161.005 49.24Z"
        fill="#1F3462"/>
    <path
        d="M177.496 47.4H170.417C170.578 48.04 170.9 48.6 171.382 48.92C171.865 49.32 172.509 49.48 173.233 49.48C174.278 49.48 175.002 49.08 175.565 48.36L177.174 49.32C176.289 50.6 175.002 51.24 173.233 51.24C171.785 51.24 170.659 50.84 169.693 49.96C168.808 49.08 168.326 47.96 168.326 46.6C168.326 45.32 168.728 44.2 169.613 43.32C170.498 42.44 171.624 41.96 172.991 41.96C174.278 41.96 175.324 42.44 176.209 43.32C177.013 44.2 177.496 45.32 177.496 46.6C177.577 46.84 177.577 47.16 177.496 47.4ZM170.417 45.88H175.646C175.485 45.16 175.244 44.68 174.761 44.28C174.278 43.88 173.715 43.72 173.072 43.72C172.348 43.72 171.785 43.88 171.302 44.28C170.819 44.68 170.498 45.16 170.417 45.88Z"
        fill="#1F3462"/>
    <path d="M177.979 42.2H185.701V44.04H182.805V51.08H180.875V44.04H177.979V42.2Z" fill="#1F3462"/>
    <path
        d="M190.849 51.24C189.482 51.24 188.356 50.76 187.471 49.88C186.586 49 186.103 47.88 186.103 46.6C186.103 45.24 186.586 44.2 187.471 43.32C188.356 42.44 189.482 41.96 190.849 41.96C191.734 41.96 192.539 42.2 193.182 42.6C193.906 43 194.469 43.56 194.791 44.28L193.102 45.24C192.86 44.84 192.619 44.52 192.217 44.2C191.815 43.96 191.332 43.8 190.769 43.8C189.964 43.8 189.321 44.04 188.758 44.6C188.275 45.16 187.953 45.8 187.953 46.6C187.953 47.4 188.195 48.04 188.758 48.6C189.321 49.16 189.964 49.4 190.769 49.4C191.252 49.4 191.734 49.24 192.217 49C192.619 48.76 192.941 48.44 193.182 47.96L194.871 48.92C194.469 49.64 193.906 50.2 193.263 50.6C192.539 51.08 191.734 51.24 190.849 51.24Z"
        fill="#1F3462"/>
    <path
        d="M200.1 46.52L204.122 51H201.79L198.17 46.92V51H196.239V42.12H198.17V46.04L201.629 42.12H203.961L200.1 46.52Z"
        fill="#1F3462"/>
    <path
        d="M208.949 51.24C207.662 51.24 206.536 50.76 205.651 49.88C204.766 49 204.283 47.88 204.283 46.6C204.283 45.32 204.766 44.2 205.651 43.32C206.536 42.44 207.662 41.96 208.949 41.96C210.236 41.96 211.362 42.44 212.247 43.32C213.132 44.2 213.614 45.32 213.614 46.6C213.614 47.88 213.132 49 212.247 49.88C211.443 50.84 210.316 51.24 208.949 51.24ZM206.214 46.6C206.214 47.4 206.455 48.04 207.018 48.6C207.581 49.16 208.225 49.4 209.029 49.4C209.834 49.4 210.477 49.16 211.04 48.6C211.603 48.04 211.845 47.4 211.845 46.6C211.845 45.8 211.603 45.16 211.04 44.6C210.477 44.04 209.834 43.8 209.029 43.8C208.225 43.8 207.581 44.04 207.018 44.6C206.455 45.16 206.214 45.8 206.214 46.6Z"
        fill="#1F3462"/>
    <path d="M215.465 42.2H221.418V44.04H217.395V51.08H215.465V42.2Z" fill="#1F3462"/>
    <path
        d="M226.566 51.24C225.279 51.24 224.153 50.76 223.268 49.88C222.383 49 221.9 47.88 221.9 46.6C221.9 45.32 222.383 44.2 223.268 43.32C224.153 42.44 225.279 41.96 226.566 41.96C227.853 41.96 228.979 42.44 229.864 43.32C230.749 44.2 231.231 45.32 231.231 46.6C231.231 47.88 230.749 49 229.864 49.88C228.979 50.84 227.853 51.24 226.566 51.24ZM223.75 46.6C223.75 47.4 223.992 48.04 224.555 48.6C225.118 49.16 225.761 49.4 226.566 49.4C227.37 49.4 228.014 49.16 228.577 48.6C229.14 48.04 229.381 47.4 229.381 46.6C229.381 45.8 229.14 45.16 228.577 44.6C228.014 44.04 227.37 43.8 226.566 43.8C225.761 43.8 225.118 44.04 224.555 44.6C224.072 45.16 223.75 45.8 223.75 46.6Z"
        fill="#1F3462"/>
    <path
        d="M242.493 46.52C243.458 46.92 243.941 47.64 243.941 48.6C243.941 49.4 243.619 50.04 242.976 50.52C242.332 51 241.528 51.24 240.402 51.24C238.632 51.24 237.425 50.52 236.782 49.08L238.31 48.12C238.632 49 239.356 49.48 240.402 49.48C240.884 49.48 241.286 49.4 241.608 49.16C241.93 48.92 242.01 48.68 242.01 48.36C242.01 48.04 241.93 47.8 241.689 47.64C241.447 47.48 241.126 47.4 240.723 47.4H239.436V45.72H240.402C240.804 45.72 241.126 45.64 241.286 45.48C241.528 45.32 241.608 45.08 241.608 44.76C241.608 44.44 241.447 44.2 241.206 44.04C240.965 43.88 240.643 43.72 240.241 43.72C239.356 43.72 238.712 44.12 238.391 44.92L236.862 44.04C237.506 42.68 238.632 42.04 240.241 42.04C241.206 42.04 242.01 42.28 242.574 42.84C243.137 43.32 243.458 43.96 243.458 44.68C243.458 45.4 243.137 46.12 242.493 46.52Z"
        fill="#1F3462"/>
    <path
        d="M250.457 41.96C251.664 41.96 252.709 42.44 253.594 43.32C254.479 44.2 254.881 45.32 254.881 46.6C254.881 47.88 254.479 49 253.594 49.88C252.709 50.76 251.664 51.24 250.457 51.24C249.089 51.24 248.044 50.76 247.32 49.72V53.96H245.389V42.12H247.32V43.4C248.124 42.44 249.17 41.96 250.457 41.96ZM248.205 48.68C248.768 49.24 249.411 49.48 250.216 49.48C251.02 49.48 251.664 49.24 252.227 48.68C252.79 48.12 253.031 47.48 253.031 46.68C253.031 45.88 252.79 45.16 252.227 44.68C251.664 44.12 251.02 43.88 250.216 43.88C249.411 43.88 248.768 44.12 248.205 44.68C247.642 45.24 247.4 45.88 247.4 46.68C247.4 47.4 247.642 48.12 248.205 48.68Z"
        fill="#1F3462"/>
    <path
        d="M265.258 47.4H258.179C258.34 48.04 258.662 48.6 259.145 48.92C259.627 49.32 260.271 49.48 260.995 49.48C262.041 49.48 262.765 49.08 263.328 48.36L264.937 49.32C264.052 50.6 262.765 51.24 260.995 51.24C259.547 51.24 258.421 50.84 257.455 49.96C256.571 49.08 256.088 47.96 256.088 46.6C256.088 45.32 256.49 44.2 257.375 43.32C258.26 42.44 259.386 41.96 260.754 41.96C262.041 41.96 263.086 42.44 263.971 43.32C264.776 44.2 265.258 45.32 265.258 46.6C265.339 46.84 265.339 47.16 265.258 47.4ZM258.179 45.88H263.408C263.247 45.16 263.006 44.68 262.523 44.28C262.041 43.88 261.478 43.72 260.834 43.72C260.11 43.72 259.547 43.88 259.064 44.28C258.582 44.68 258.34 45.16 258.179 45.88Z"
        fill="#1F3462"/>
    <path d="M273.061 45.72V42.2H274.992V51.08H273.061V47.56H268.959V51.08H267.028V42.2H268.959V45.72H273.061Z"
          fill="#1F3462"/>
    <path d="M279.094 47.8L283.68 42.2H285.127V51.08H283.277V45.48L278.692 51.08H277.244V42.2H279.094V47.8Z"
          fill="#1F3462"/>
    <path
        d="M290.276 42.2H294.218V51.08H292.367V48.12H291.322L289.069 51.08H286.817L289.23 47.96C288.587 47.72 288.104 47.4 287.782 46.92C287.38 46.44 287.219 45.88 287.219 45.24C287.219 44.44 287.541 43.72 288.104 43.16C288.587 42.44 289.311 42.2 290.276 42.2ZM290.356 46.44H292.367V43.96H290.356C289.954 43.96 289.632 44.04 289.391 44.28C289.15 44.52 288.989 44.84 288.989 45.16C288.989 45.56 289.15 45.8 289.391 46.04C289.632 46.28 289.954 46.44 290.356 46.44Z"
        fill="#1F3462"/>
    <path d="M194.791 38.44H197.526L199.215 32.84H195.676L194.791 38.44Z" fill="#F5841F"/>
    <path
        d="M224.072 13V35.24H220.372V28.76H212.81C212.167 32.44 208.949 35.24 205.007 35.24V31.96C207.099 31.96 208.788 30.36 209.11 28.2C206.133 27.08 204.042 24.2 204.042 20.84C204.042 16.52 207.581 13 211.925 13H224.072ZM220.372 16.2H212.006C209.673 16.2 207.823 18.28 207.823 20.84C207.823 23.4 209.673 25.48 212.006 25.48H220.372V16.2Z"
        fill="#F5841F"/>
    <path
        d="M139.045 35.72C136.712 35.72 134.781 34.92 133.253 33.32C131.644 31.72 130.92 29.56 130.92 26.84C130.92 24.12 131.725 21.96 133.253 20.36C134.862 18.76 136.792 17.96 139.045 17.96C141.619 17.96 143.55 18.92 144.676 20.92H144.756V18.44H148.296V35.08H144.756V32.6H144.676C143.55 34.76 141.619 35.72 139.045 35.72ZM136.068 30.76C137.034 31.72 138.24 32.28 139.769 32.28C141.297 32.28 142.584 31.8 143.469 30.76C144.354 29.72 144.917 28.44 144.917 26.84C144.917 25.24 144.434 23.96 143.469 22.92C142.504 21.96 141.297 21.4 139.769 21.4C138.24 21.4 136.953 21.88 136.068 22.92C135.103 23.88 134.621 25.24 134.621 26.84C134.621 28.44 135.103 29.8 136.068 30.76Z"
        fill="#F5841F"/>
    <path
        d="M182.484 35.72C180.151 35.72 178.22 34.92 176.692 33.32C175.083 31.72 174.359 29.56 174.359 26.84C174.359 24.12 175.163 21.96 176.692 20.36C178.301 18.76 180.231 17.96 182.484 17.96C185.058 17.96 186.988 18.92 188.114 20.92H188.195V18.44H191.734V35.08H188.195V32.6H188.114C186.988 34.76 185.058 35.72 182.484 35.72ZM179.507 30.76C180.472 31.72 181.679 32.28 183.208 32.28C184.736 32.28 186.023 31.8 186.908 30.76C187.873 29.8 188.356 28.44 188.356 26.84C188.356 25.24 187.873 23.96 186.908 22.92C185.943 21.96 184.736 21.4 183.208 21.4C181.679 21.4 180.392 21.88 179.507 22.92C178.542 23.88 178.059 25.24 178.059 26.84C178.059 28.44 178.542 29.8 179.507 30.76Z"
        fill="#F5841F"/>
    <path
        d="M243.78 26.52C246.194 26.84 247.4 28.2 247.4 30.52C247.4 32.04 246.837 33.24 245.63 34.04C244.424 34.84 243.056 35.24 241.367 35.24H231.473V18.52H241.689C243.217 18.52 244.504 18.92 245.47 19.64C246.435 20.36 246.918 21.4 246.918 22.76C246.918 24.76 245.872 26.04 243.78 26.52ZM240.884 21.4H235.012V25.16H240.884C242.413 25.16 243.137 24.52 243.137 23.24C243.137 22.68 242.976 22.28 242.574 21.96C242.171 21.56 241.608 21.4 240.884 21.4ZM241.045 32.36C241.85 32.36 242.493 32.2 242.976 31.8C243.459 31.4 243.7 30.92 243.7 30.2C243.7 28.76 242.895 27.96 241.367 27.96H235.012V32.28H241.045V32.36Z"
        fill="#F5841F"/>
    <path d="M263.891 18.52L253.675 30.6V18.52H249.894V35.24H253.675L263.891 23.16V35.24H267.671V18.52H263.891Z"
          fill="#F5841F"/>
    <path
        d="M307.732 18.52L301.377 31.24L295.022 18.52H293.896H291H289.874L285.208 25H283.76V18.52H280.06V25H278.612L273.946 18.52H269.924L275.716 26.6C275.555 26.84 275.314 27.24 275.153 27.48L269.602 35.24H273.624L278.29 28.76H280.06V35.24H283.76V28.76H285.53L290.195 35.24H294.218C294.218 35.24 288.265 26.84 288.104 26.68L292.207 20.92L299.366 35.24L297.355 39.24L300.492 40.76L311.593 18.52H307.732Z"
        fill="#F5841F"/>
    <path
        d="M167.923 35.24V24.12L162.212 33.48H160.523L154.892 24.04V35.24H151.272V18.44H155.455L161.488 28.92L167.763 18.44H171.463V35.24H167.923Z"
        fill="#F5841F"/>
    <path
        d="M124.324 35.24V20.68L117.084 32.76H115.234L107.994 20.84V35.24H104.133V13.24H107.512L116.119 27.8L124.807 13.24H128.185L128.266 35.24H124.324Z"
        fill="#F5841F"/>
    <path
        d="M83.5513 40.4C83.7927 40.16 83.7927 39.68 83.5513 39.44L66.8194 22.8L66.6585 22.64C61.3493 17.44 54.2704 14.56 46.7893 14.56C39.3082 14.56 32.2293 17.44 26.9201 22.72L26.8397 22.8L10.1078 39.44C9.86643 39.68 9.86643 40.16 10.1078 40.4L26.8397 57.04L27.0006 57.2C30.2987 60.4 34.2404 62.72 38.5038 64.08C37.2972 60.72 35.2057 57.68 32.3098 55.36C31.7467 54.88 31.1031 54.4 30.6205 53.84L27.081 50.32C26.1157 49.36 26.1157 47.76 27.1615 46.8C28.1268 45.92 29.7356 46 30.6205 46.96L34.0795 50.4C37.5385 53.76 42.1237 55.6 46.9502 55.6C51.7767 55.6 56.3619 53.76 59.8209 50.4L63.2799 46.96C64.2452 46 65.7736 45.92 66.7389 46.8C67.7847 47.76 67.7847 49.36 66.8194 50.32L63.2799 53.84C62.7973 54.32 62.3146 54.8 61.7515 55.2C58.9361 57.52 56.8446 60.56 55.7184 63.92C59.8209 62.56 63.6822 60.32 66.8194 57.2L66.8998 57.12L83.5513 40.4ZM46.7893 50.64C40.8366 50.64 36.0101 45.84 36.0101 39.92C36.0101 34 40.8366 29.2 46.7893 29.2C52.742 29.2 57.5686 34 57.5686 39.92C57.5686 45.84 52.742 50.64 46.7893 50.64Z"
        fill="#F5841F"/>
    <path
        d="M2.86793 27.04L0.293788 29.6C0.0524614 29.84 0.0524614 30.32 0.293788 30.56L5.6834 36C5.92473 36.24 6.40738 36.24 6.64871 36L9.22285 33.44C9.46418 33.2 9.46418 32.72 9.22285 32.48L3.83324 27.12C3.59191 26.8 3.10926 26.8 2.86793 27.04Z"
        fill="#F5841F"/>
    <path
        d="M48.6394 0H45.1C44.6977 0 44.376 0.32 44.376 0.72V8.8C44.376 9.2 44.6977 9.52 45.1 9.52H48.7198C49.1221 9.52 49.4438 9.2 49.4438 8.8V0.72C49.3634 0.32 49.0416 0 48.6394 0Z"
        fill="#F5841F"/>
    <path
        d="M18.0715 12.8L22.8176 18.72C23.0589 19.04 23.5416 19.04 23.8633 18.8L26.4375 16.24C26.6788 16 26.6788 15.6 26.5179 15.28L21.7718 9.36002C21.5305 9.04002 21.0478 9.04002 20.7261 9.28002L18.1519 11.84C17.9106 12.16 17.8302 12.56 18.0715 12.8Z"
        fill="#F5841F"/>
    <path
        d="M90.8716 27.04L93.4458 29.6C93.6871 29.84 93.6871 30.32 93.4458 30.56L88.0561 35.92C87.8148 36.16 87.3322 36.16 87.0908 35.92L84.5167 33.36C84.2754 33.12 84.2754 32.64 84.5167 32.4L89.9063 27.04C90.1476 26.8 90.6303 26.8 90.8716 27.04Z"
        fill="#F5841F"/>
    <path
        d="M75.668 12.8L70.8415 18.8C70.6002 19.12 70.1175 19.12 69.7958 18.88L67.2216 16.32C66.9803 16.08 66.9803 15.68 67.1412 15.36L71.8873 9.43998C72.1286 9.11998 72.6112 9.11998 72.933 9.35998L75.5072 11.92C75.8289 12.16 75.9094 12.56 75.668 12.8Z"
        fill="#F5841F"/>
</svg>
