<svg width="56" height="50" viewBox="0 0 56 50" fill="none" xmlns="http://www.w3.org/2000/svg">
<path d="M16.714 23.354L16.6291 23.4306H16.4594L16.3746 23.5071H16.2897L15.9503 23.8134V23.89L15.7806 24.0431V24.1963L15.6958 24.2728V24.8088L15.7806 24.8854V25.0386L15.8655 25.1151V25.1917L16.2897 25.5745H16.3746L16.4594 25.6511H16.6291L16.714 25.7277H26.3019L26.3867 25.6511H26.5564L26.7261 25.498H26.811L27.0655 25.2683V25.1917L27.1503 25.1151V25.0386L27.2352 24.962V24.8088L27.32 24.7323V24.426L27.2352 24.3494V24.1197L27.1503 24.0431V23.9666L27.0655 23.89V23.8134H26.9806L26.8958 23.7369V23.6603L26.811 23.5837H26.7261L26.6413 23.5071H26.5564L26.4716 23.4306H26.3867L26.3019 23.354H16.714Z" fill="#1F3462"/>
<path d="M16.714 17.0747L16.6291 17.1513H16.4594L16.3746 17.2278H16.2897L15.8655 17.6107V17.6873L15.7806 17.7638V17.917L15.6958 17.9936V18.453L15.7806 18.5295V18.6827L15.8655 18.7593V18.8358L15.9503 18.9124V18.989L16.12 19.1421H16.2049L16.3746 19.2952H16.4594L16.5443 19.3718H16.714L16.7988 19.4484H36.5685L36.6534 19.3718H36.8231L36.9079 19.2952H36.9928L37.1625 19.1421H37.2473L37.417 18.989V18.9124L37.5019 18.8358V18.7593L37.5867 18.6827V18.5295L37.6716 18.453V18.1467L37.5867 18.0701V17.8404L37.5019 17.7638V17.6873L37.417 17.6107V17.5341L37.0776 17.2278H36.9928L36.9079 17.1513H36.7382L36.6534 17.0747H16.714Z" fill="#1F3462"/>
<path d="M4.24242 15.3901L4.15758 15.4667H3.81818L3.73333 15.5433H3.47879L3.39394 15.6198H3.22424L3.13939 15.6964H2.9697L2.88485 15.773H2.8L2.71515 15.8496H2.6303L2.54545 15.9261H2.46061L2.37576 16.0027H2.29091L2.20606 16.0793H2.12121L1.86667 16.309H1.78182L1.18788 16.845V16.9215L0.933333 17.1513V17.2278L0.678788 17.4575V17.5341L0.593939 17.6107V17.6872L0.509091 17.7638V17.8404L0.424242 17.917V17.9935L0.339394 18.0701V18.1467L0.254545 18.2232V18.3764L0.169697 18.4529V18.6827L0.0848485 18.7592V18.9889L0 19.0655V46.4777L0.0848485 46.5542V46.8605L0.169697 46.9371V47.0902L0.254545 47.1668V47.2434L0.339394 47.3199V47.3965L0.424242 47.4731V47.5497L0.509091 47.6262V47.7794L0.763636 48.0091V48.0856L0.933333 48.2388V48.3154L1.78182 49.0811H1.86667L2.12121 49.3108H2.20606L2.37576 49.4639H2.54545L2.71515 49.6171H2.8L2.88485 49.6936H3.05455L3.13939 49.7702H3.30909L3.39394 49.8468H3.64848L3.73333 49.9233H4.15758L4.24242 49.9999H41.1515L41.2364 49.9233H41.7455L41.8303 49.8468H42.0848L42.1697 49.7702H42.3394L42.4242 49.6936H42.5939L42.6788 49.6171H42.7636L42.8485 49.5405H42.9333L43.0182 49.4639H43.103L43.3576 49.2342H43.4424L43.6121 49.0811H43.697L44.3758 48.4685V48.3919L44.5455 48.2388V48.1622L44.7152 48.0091V47.9325L44.8848 47.7794V47.7028L44.9697 47.6262V47.5497L45.0545 47.4731V47.3965L45.1394 47.3199V47.2434L45.3091 47.0902V47.0137L45.3939 46.9371V46.8605L45.4788 46.784V46.7074L45.5636 46.6308V46.5542L45.6485 46.4777V46.4011L45.7333 46.3245V46.248L45.8182 46.1714V46.0948L45.9879 45.9417V45.8651L46.0727 45.7885V45.6354L46.2424 45.4823V45.4057L46.3273 45.3291V45.2525L46.4121 45.176V45.0994L46.497 45.0228V44.9463L46.5818 44.8697V44.7931L46.6667 44.7166V44.64L46.8364 44.4868V44.4103L46.9212 44.3337V44.2571L47.0061 44.1806V44.104L47.0909 44.0274V43.9509L47.2606 43.7977V43.7211L47.3455 43.6446V43.568L47.5152 43.4149V43.3383L47.6 43.2617V43.1851L47.6848 43.1086V43.032L47.7697 42.9554V42.8789L47.8545 42.8023V42.7257L47.9394 42.6492V42.5726L48.0242 42.496V42.4194L48.1091 42.3429V42.2663L48.2788 42.1132V42.0366L48.3636 41.96V41.8835L48.4485 41.8069V41.6537L48.6182 41.5006V41.424L48.703 41.3475V41.2709L48.7879 41.1943V41.1178L48.8727 41.0412V40.9646L49.0424 40.8115V40.7349L49.1273 40.6583V40.5818L49.2121 40.5052V40.4286L49.3818 40.2755V40.1989L49.4667 40.1223V40.0458L49.5515 39.9692V39.8926L49.6364 39.8161V39.7395L49.8061 39.5863V39.5098L49.8909 39.4332V39.3566L49.9758 39.2801V39.2035L50.0606 39.1269V39.0504L50.1455 38.9738V38.8972L50.2303 38.8206V38.7441L50.4 38.5909V38.5144L50.4848 38.4378V38.3612L50.5697 38.2847V38.2081L50.6545 38.1315V38.0549L50.7394 37.9784V37.9018L50.8242 37.8252V37.7487L50.9091 37.6721V37.5955L51.1636 37.3658V37.2127L51.2485 37.1361V37.0595L51.4182 36.9064V36.8298L51.503 36.7532V36.6767L51.5879 36.6001V36.5235L51.6727 36.447V36.3704L51.7576 36.2938V36.2173L51.9273 36.0641V35.9875L52.0121 35.911V35.8344L52.097 35.7578V35.6813L52.1818 35.6047V35.5281L52.2667 35.4516V35.375L52.3515 35.2984V35.2218L52.5212 35.0687V34.9921L52.6061 34.9156V34.839L52.6909 34.7624V34.6858L52.7758 34.6093V34.5327L52.8606 34.4561V34.3796L52.9455 34.303V34.2264L53.0303 34.1499V34.0733L53.1152 33.9967V33.9201L53.2848 33.767V33.6904L53.3697 33.6139V33.5373L53.5394 33.3842V33.3076L53.6242 33.231V33.1544L53.7091 33.0779V33.0013L53.7939 32.9247V32.8482L53.8788 32.7716V32.695L53.9636 32.6184V32.5419L54.1333 32.3887V32.2356L54.303 32.0825V32.0059L54.3879 31.9293V31.8527L54.4727 31.7762V31.6996L54.5576 31.623V31.5465L54.6424 31.4699V31.3933L54.8121 31.2402V31.1636L54.897 31.087V31.0105L54.9818 30.9339V30.8573L55.0667 30.7808V30.7042L55.1515 30.6276V30.5511L55.3212 30.3979V30.3213L55.4061 30.2448V30.1682L55.5758 30.0151V29.9385L55.6606 29.8619V29.7088L55.8303 29.5556V29.4025L55.9152 29.3259V28.9431L56 28.8665L55.9152 28.7899V28.3305L55.8303 28.2539V28.1774L55.7455 28.1008V28.0242L55.1515 27.4882H55.0667L54.9818 27.4117H54.897L54.8121 27.3351H54.6424L54.5576 27.2585H53.8788L53.7939 27.182H53.5394L53.4545 27.2585L53.3697 27.182L53.2848 27.2585L53.2 27.182H52.7758L52.6909 27.2585H52.6061L52.5212 27.182H49.1273L49.0424 27.2585L48.9576 27.182H48.5333L48.4485 27.2585L48.3636 27.182H48.1939L48.1091 27.2585H47.6L47.5152 27.182H47.0909L47.0061 27.2585H46.9212L46.8364 27.182H46.7515L46.6667 27.2585L46.5818 27.182L46.497 27.2585L46.4121 27.182H45.7333L45.6485 27.2585H45.2242L45.1394 27.182L45.0545 27.2585H44.9697L44.8848 27.182L44.8 27.2585H44.7152L44.6303 27.182H44.3758L44.2909 27.2585L44.2061 27.182H44.1212L44.0364 27.2585H43.9515L43.8667 27.182H43.697L43.6121 27.2585L43.5273 27.182H43.4424L43.3576 27.2585H43.2727L43.1879 27.182H42.8485L42.7636 27.2585H42.6788L42.5939 27.182H41.4061L41.3212 27.2585H41.1515L41.0667 27.182H40.897L40.8121 27.2585H40.7273L40.6424 27.182H39.9636L39.8788 27.2585H38.9455L38.8606 27.182L38.7758 27.2585H38.6061L38.5212 27.182H38.2667L38.1818 27.2585L38.097 27.182L38.0121 27.2585H37.9273L37.8424 27.182L37.7576 27.2585H37.6727L37.5879 27.182H37.503L37.4182 27.2585L37.3333 27.182L37.2485 27.2585H36.8242L36.7394 27.182L36.6545 27.2585H36.4848L36.4 27.182L36.3152 27.2585L36.2303 27.182H35.9758L35.8909 27.2585H35.8061L35.7212 27.182H35.3818L35.297 27.2585H35.1273L35.0424 27.182H34.703L34.6182 27.2585L34.5333 27.182H34.2788L34.1939 27.2585H34.1091L34.0242 27.182H33.5152L33.4303 27.2585H32.9212L32.8364 27.182H32.5818L32.497 27.2585H32.2424L32.1576 27.182L32.0727 27.2585H31.9879L31.903 27.182H31.4788L31.3939 27.2585L31.3091 27.182H31.1394L31.0545 27.2585H30.8848L30.8 27.182H30.7152L30.6303 27.2585L30.5455 27.182H29.9515L29.8667 27.2585H29.697L29.6121 27.182H29.4424L29.3576 27.2585H28.4242L28.3394 27.182L28.2545 27.2585H28L27.9152 27.182H27.3212L27.2364 27.2585H26.3879L26.303 27.182H26.1333L26.0485 27.2585H25.2848L25.2 27.182H23.6727L23.5879 27.2585L23.503 27.182H23.3333L23.2485 27.2585H23.1636L23.0788 27.182L22.9939 27.2585H22.8242L22.7394 27.182H22.6545L22.5697 27.2585H22.4848L22.4 27.182H21.0424L20.9576 27.2585L20.8727 27.182H19.7697L19.6848 27.2585H18.8364L18.7515 27.3351H18.497L18.4121 27.4117H18.3273L18.2424 27.4882H18.1576L18.0727 27.5648H17.9879L17.8182 27.718H17.7333L16.8 28.5602V28.6368L16.7152 28.7134V28.7899L16.6303 28.8665V28.9431L16.5455 29.0196V29.0962L16.3758 29.2494V29.3259L16.2909 29.4025V29.5556L16.1212 29.7088V29.7853L16.0364 29.8619V29.9385L15.9515 30.0151V30.0916L15.8667 30.1682V30.2448L15.7818 30.3213V30.3979L15.697 30.4745V30.5511L15.5273 30.7042V30.7808L15.4424 30.8573V30.9339L15.3576 31.0105V31.087L15.2727 31.1636V31.2402L15.1879 31.3168V31.3933L15.0182 31.5465V31.623L14.9333 31.6996V31.7762L14.7636 31.9293V32.0059L14.6788 32.0825V32.159L14.5939 32.2356V32.3122L14.5091 32.3887V32.4653L14.3394 32.6184V32.695L14.2545 32.7716V32.8482L14.1697 32.9247V33.0013L14.0848 33.0779V33.1544L14 33.231V33.3076L13.9152 33.3842V33.4607L13.8303 33.5373V33.6139L13.7455 33.6904V33.767L13.6606 33.8436V33.9201L13.5758 33.9967V34.0733L13.4061 34.2264V34.303L13.3212 34.3796V34.4561L13.2364 34.5327V34.6093L13.1515 34.6858V34.7624L12.9818 34.9156V34.9921L12.897 35.0687V35.1453L12.7273 35.2984V35.375L12.6424 35.4516V35.5281L12.5576 35.6047V35.6813L12.4727 35.7578V35.8344L12.303 35.9875V36.0641L12.2182 36.1407V36.2173L12.1333 36.2938V36.3704L12.0485 36.447V36.5235L11.9636 36.6001V36.6767L11.8788 36.7532V36.8298L11.7939 36.9064V36.983L11.7091 37.0595V37.1361L11.5394 37.2892V37.3658L11.4545 37.4424V37.5189L11.3697 37.5955V37.6721L11.2848 37.7487V37.8252L11.2 37.9018V37.9784L11.1152 38.0549V38.1315L10.8606 38.3612V38.5144L10.6909 38.6675V38.7441L10.6061 38.8206V38.8972L10.5212 38.9738V39.0504L10.4364 39.1269V39.2035L10.3515 39.2801V39.3566L10.1818 39.5098V39.5863L10.097 39.6629V39.7395L10.0121 39.8161V39.8926L9.92727 39.9692V40.0458L9.75758 40.1989V40.2755L9.67273 40.352V40.4286L9.58788 40.5052V40.5818L9.50303 40.6583V40.7349L9.41818 40.8115V40.888L9.33333 40.9646V41.0412L9.24848 41.1178V41.1943L9.16364 41.2709V41.3475L9.07879 41.424V41.5006L8.90909 41.6537V41.7303L8.82424 41.8069V41.8835L8.73939 41.96V42.0366L8.5697 42.1897V42.2663L8.48485 42.3429V42.4194L8.4 42.496V42.5726L8.31515 42.6492V42.7257L8.2303 42.8023V42.8789L8.06061 43.032V43.1086L7.97576 43.1851V43.2617L7.89091 43.3383V43.4149L7.72121 43.568V43.6446L7.63636 43.7211V43.7977L7.55152 43.8743V43.9509L7.46667 44.0274V44.104L7.38182 44.1806V44.2571L7.29697 44.3337V44.4103L7.21212 44.4868V44.5634L7.12727 44.64V44.7166L6.95758 44.8697V44.9463L6.87273 45.0228V45.0994L6.78788 45.176V45.2525L6.61818 45.4057V45.4823L6.53333 45.5588V45.6354L6.44848 45.712V45.7885L6.27879 45.9417V46.0182L6.19394 46.0948V46.1714L6.10909 46.248V46.3245L6.02424 46.4011V46.4777L5.93939 46.5542V46.6308L5.85455 46.7074V46.784L5.34545 47.2434H5.26061L5.17576 47.3199H5.09091L5.00606 47.3965H4.83636L4.75152 47.4731H4.07273L3.98788 47.3965H3.81818L3.73333 47.3199H3.64848L3.56364 47.2434H3.47879L3.30909 47.0902H3.22424L2.9697 46.8605V46.784L2.8 46.6308V46.4777L2.71515 46.4011V46.3245L2.6303 46.248V45.9417L2.54545 45.8651V19.1421L2.6303 19.0655V18.9124L2.71515 18.8358V18.6827L2.88485 18.5295V18.4529L3.39394 17.9935H3.47879L3.64848 17.8404H3.81818L3.90303 17.7638H3.98788L4.07273 17.6872H6.95758V15.3901H4.24242Z" fill="#1F3462"/>
<path d="M16.6291 11.1025L16.5443 11.1791H16.3746L16.2049 11.3322H16.12L15.9503 11.4854V11.562L15.7806 11.7151V11.9448L15.6958 12.0214V12.4808L15.7806 12.5574V12.7105L15.8655 12.7871V12.8637L16.2049 13.1699H16.2897L16.3746 13.2465H16.4594L16.5443 13.3231H16.714L16.7988 13.3996H30.8837L30.9685 13.3231H31.1382L31.2231 13.2465H31.3079L31.3928 13.1699H31.4776L31.7322 12.9402V12.8637L31.817 12.7871V12.6339L31.9019 12.5574V11.9448L31.817 11.8682V11.7151L31.7322 11.6385V11.562L31.3928 11.2557H31.3079L31.2231 11.1791H31.1382L31.0534 11.1025H16.6291Z" fill="#1F3462"/>
<path d="M11.7094 0L11.6245 0.0765703H11.2851L11.2003 0.153141H11.0306L10.9457 0.229711H10.8609L10.776 0.306281H10.6912L10.6063 0.382851H10.5215L10.2669 0.612562H10.1821L10.0972 0.689133V0.765703L9.8427 0.995414V1.07198L9.75785 1.14855V1.22512L9.673 1.30169V1.37827L9.58815 1.45484V1.60798L9.50331 1.68455V2.0674L9.41846 2.14397V37.2897L9.50331 37.2132V37.06L9.58815 36.9834V36.9069L9.75785 36.7537V36.6772L9.8427 36.6006V36.524L9.92755 36.4475V36.3709L10.0124 36.2943V36.2177L10.0972 36.1412V36.0646L10.1821 35.988V35.9115L10.3518 35.7583V35.6052L10.5215 35.452V35.3755L10.6063 35.2989V35.2223L10.6912 35.1458V35.0692L10.776 34.9926V34.9161L10.8609 34.8395V34.7629L10.9457 34.6863V34.6098L11.0306 34.5332V34.3801L11.2003 34.2269V34.0738L11.2851 33.9972V33.9206L11.37 33.8441V33.7675L11.5397 33.6144V33.5378L11.6245 33.4612V33.3081L11.7942 33.1549V33.0018L11.8791 32.9252V32.6955L11.9639 32.6189V32.3127L12.0488 32.2361V2.37368L12.1336 2.29711H33.2609L33.3457 2.37368V7.65703L33.4306 7.7336V8.03988L33.5154 8.11645V8.19302L33.6003 8.26959V8.42273L33.77 8.57587V8.65244L33.9397 8.80558V8.88215L34.2791 9.18843H34.3639L34.5336 9.34158H34.6185L34.7033 9.41815H34.7882L34.873 9.49472H35.0427L35.1275 9.57129H35.4669L35.5518 9.64786H41.1518L41.2366 9.72443V25.7276H43.7821V8.57587L43.6972 8.4993V8.34616L43.6124 8.26959V8.19302L42.9336 7.58046V7.50389L42.3397 6.9679V6.89133L41.4063 6.04905V5.97248L40.1336 4.82393V4.74736L39.0306 3.75194V3.67537H38.9457L38.8609 3.5988V3.52223L38.0124 2.75653V2.67996L37.1639 1.91426V1.83769H37.0791L36.9942 1.76112V1.68455L36.1457 0.918843V0.842273L35.2124 0H11.7094Z" fill="#1F3462"/>
</svg>
