<svg width="29" height="29" viewBox="0 0 29 29" fill="none" xmlns="http://www.w3.org/2000/svg">
<path d="M14.5 16.4033C15.7018 16.4033 16.8543 15.9259 17.7041 15.0761C18.5539 14.2264 19.0312 13.0738 19.0312 11.8721C19.0312 10.6703 18.5539 9.51777 17.7041 8.66799C16.8543 7.81822 15.7018 7.34082 14.5 7.34082C13.2982 7.34082 12.1457 7.81822 11.2959 8.66799C10.4461 9.51777 9.96875 10.6703 9.96875 11.8721C9.96875 13.0738 10.4461 14.2264 11.2959 15.0761C12.1457 15.9259 13.2982 16.4033 14.5 16.4033Z" fill="#1F3462"/>
<path d="M1.8125 1.8125C1.3318 1.8125 0.870779 2.00346 0.530869 2.34337C0.190959 2.68328 0 3.1443 0 3.625L0 23.5625C0 24.0432 0.190959 24.5042 0.530869 24.8441C0.870779 25.184 1.3318 25.375 1.8125 25.375H2.71875C2.9591 25.375 3.18961 25.2795 3.35957 25.1096C3.52952 24.9396 3.625 24.7091 3.625 24.4688C3.625 24.2284 3.72048 23.9979 3.89043 23.8279C4.06039 23.658 4.2909 23.5625 4.53125 23.5625C4.7716 23.5625 5.00211 23.658 5.17207 23.8279C5.34202 23.9979 5.4375 24.2284 5.4375 24.4688C5.4375 24.7091 5.53298 24.9396 5.70293 25.1096C5.87289 25.2795 6.1034 25.375 6.34375 25.375H22.6562C22.8966 25.375 23.1271 25.2795 23.2971 25.1096C23.467 24.9396 23.5625 24.7091 23.5625 24.4688C23.5625 24.2284 23.658 23.9979 23.8279 23.8279C23.9979 23.658 24.2284 23.5625 24.4688 23.5625C24.7091 23.5625 24.9396 23.658 25.1096 23.8279C25.2795 23.9979 25.375 24.2284 25.375 24.4688C25.375 24.7091 25.4705 24.9396 25.6404 25.1096C25.8104 25.2795 26.0409 25.375 26.2812 25.375H27.1875C27.6682 25.375 28.1292 25.184 28.4691 24.8441C28.809 24.5042 29 24.0432 29 23.5625V5.4375C29 4.95679 28.809 4.49578 28.4691 4.15587C28.1292 3.81596 27.6682 3.625 27.1875 3.625H12.1564L10.875 2.34356C10.5352 2.00363 10.0742 1.8126 9.59356 1.8125H1.8125ZM1.8125 3.625H9.59356L10.875 4.90644C11.2148 5.24637 11.6758 5.4374 12.1564 5.4375H27.1875V23.5625H27.0334C26.8855 23.1444 26.6375 22.7689 26.3111 22.4686C25.9846 22.1683 25.5897 21.9525 25.1607 21.8399C24.7318 21.7273 24.2818 21.7213 23.85 21.8226C23.4182 21.9238 23.0177 22.1291 22.6834 22.4206C21.5416 20.3417 19.1291 18.125 14.5 18.125C9.86906 18.125 7.45662 20.3435 6.31838 22.4206C5.98413 22.1291 5.58365 21.9238 5.15185 21.8226C4.72005 21.7213 4.27004 21.7273 3.84106 21.8399C3.41209 21.9525 3.01718 22.1683 2.69076 22.4686C2.36435 22.7689 2.11634 23.1444 1.96837 23.5625H1.8125V3.625Z" fill="#1F3462"/>
</svg>
