<svg width="34" height="41" viewBox="0 0 34 41" fill="none" xmlns="http://www.w3.org/2000/svg">
<path opacity="0.6" d="M16.575 40.575C19.2812 40.575 21.475 40.3064 21.475 39.975C21.475 39.6436 19.2812 39.375 16.575 39.375C13.8688 39.375 11.675 39.6436 11.675 39.975C11.675 40.3064 13.8688 40.575 16.575 40.575Z" fill="black"/>
<path d="M28.275 4.875C21.775 -1.625 11.275 -1.625 4.875 4.875C-1.625 11.375 -1.625 21.875 4.875 28.275L16.575 39.975L28.275 28.275C34.775 21.775 34.775 11.275 28.275 4.875ZM20.675 20.675C18.375 22.975 14.775 22.975 12.475 20.675C10.175 18.375 10.175 14.775 12.475 12.475C14.775 10.175 18.375 10.175 20.675 12.475C22.875 14.675 22.875 18.375 20.675 20.675Z" fill="#F5841F"/>
</svg>
