<svg width="96" height="96" viewBox="0 0 96 96" fill="none" xmlns="http://www.w3.org/2000/svg">
<g filter="url(#filter0_d_3401_1295)">
<rect x="10" y="10" width="76" height="76" rx="14" fill="url(#paint0_radial_3401_1295)"/>
</g>
<path d="M41.2 35.5333C39.0959 35.5333 37.0781 36.3691 35.5903 37.8569C34.1025 39.3447 33.2667 41.3626 33.2667 43.4666V54.7999C33.2667 56.904 34.1025 58.9219 35.5903 60.4096C37.0781 61.8974 39.0959 62.7333 41.2 62.7333H52.5333C54.6374 62.7333 56.6553 61.8974 58.143 60.4096C59.6308 58.9219 60.4667 56.904 60.4667 54.7999V49.1333C60.4667 48.8327 60.5861 48.5444 60.7986 48.3319C61.0112 48.1193 61.2994 47.9999 61.6 47.9999C61.9006 47.9999 62.1888 48.1193 62.4014 48.3319C62.6139 48.5444 62.7333 48.8327 62.7333 49.1333V54.7999C62.7333 57.5051 61.6587 60.0996 59.7458 62.0124C57.833 63.9253 55.2385 64.9999 52.5333 64.9999H41.2C38.4948 64.9999 35.9004 63.9253 33.9875 62.0124C32.0746 60.0996 31 57.5051 31 54.7999V43.4666C31 40.7614 32.0746 38.167 33.9875 36.2541C35.9004 34.3412 38.4948 33.2666 41.2 33.2666H46.8667C47.1672 33.2666 47.4555 33.386 47.6681 33.5985C47.8806 33.8111 48 34.0994 48 34.3999C48 34.7005 47.8806 34.9888 47.6681 35.2013C47.4555 35.4139 47.1672 35.5333 46.8667 35.5333H41.2Z" fill="white"/>
<path d="M65.0004 37.8C65.0004 39.6035 64.284 41.3331 63.0087 42.6083C61.7335 43.8836 60.0039 44.6 58.2004 44.6C56.3969 44.6 54.6673 43.8836 53.3921 42.6083C52.1168 41.3331 51.4004 39.6035 51.4004 37.8C51.4004 35.9965 52.1168 34.2669 53.3921 32.9917C54.6673 31.7164 56.3969 31 58.2004 31C60.0039 31 61.7335 31.7164 63.0087 32.9917C64.284 34.2669 65.0004 35.9965 65.0004 37.8Z" fill="white"/>
<defs>
<filter id="filter0_d_3401_1295" x="0.9" y="0.9" width="94.2" height="94.2" filterUnits="userSpaceOnUse" color-interpolation-filters="sRGB">
<feFlood flood-opacity="0" result="BackgroundImageFix"/>
<feColorMatrix in="SourceAlpha" type="matrix" values="0 0 0 0 0 0 0 0 0 0 0 0 0 0 0 0 0 0 127 0" result="hardAlpha"/>
<feOffset/>
<feGaussianBlur stdDeviation="4.55"/>
<feComposite in2="hardAlpha" operator="out"/>
<feColorMatrix type="matrix" values="0 0 0 0 0.922517 0 0 0 0 0.922517 0 0 0 0 0.922517 0 0 0 0.25 0"/>
<feBlend mode="normal" in2="BackgroundImageFix" result="effect1_dropShadow_3401_1295"/>
<feBlend mode="normal" in="SourceGraphic" in2="effect1_dropShadow_3401_1295" result="shape"/>
</filter>
<radialGradient id="paint0_radial_3401_1295" cx="0" cy="0" r="1" gradientUnits="userSpaceOnUse" gradientTransform="translate(48 48) rotate(90) scale(33.4627)">
<stop stop-color="#65B3EB"/>
<stop offset="1" stop-color="#3981F1"/>
</radialGradient>
</defs>
</svg>
