<svg width="96" height="96" viewBox="0 0 96 96" fill="none" xmlns="http://www.w3.org/2000/svg">
<g filter="url(#filter0_d_3401_1294)">
<rect x="10" y="10" width="76" height="76" rx="14" fill="url(#paint0_radial_3401_1294)"/>
</g>
<path d="M50.3917 52.1327C51.6808 52.1327 52.8337 51.1345 52.8337 49.699C52.8337 47.983 51.7468 47.1621 50.4412 47.1621C49.2326 47.1621 48.0322 47.9603 48.0322 49.6577C48.0322 51.3428 49.1522 52.1327 50.3917 52.1327Z" fill="white"/>
<path d="M38.2188 31C38.4923 31 38.7546 31.1086 38.948 31.302C39.1414 31.4954 39.25 31.7577 39.25 32.0312V33.0625H55.75V32.0312C55.75 31.7577 55.8586 31.4954 56.052 31.302C56.2454 31.1086 56.5077 31 56.7812 31C57.0548 31 57.3171 31.1086 57.5105 31.302C57.7039 31.4954 57.8125 31.7577 57.8125 32.0312V33.0625H59.875C60.969 33.0625 62.0182 33.4971 62.7918 34.2707C63.5654 35.0443 64 36.0935 64 37.1875V59.875C64 60.969 63.5654 62.0182 62.7918 62.7918C62.0182 63.5654 60.969 64 59.875 64H35.125C34.031 64 32.9818 63.5654 32.2082 62.7918C31.4346 62.0182 31 60.969 31 59.875V37.1875C31 36.0935 31.4346 35.0443 32.2082 34.2707C32.9818 33.4971 34.031 33.0625 35.125 33.0625H37.1875V32.0312C37.1875 31.7577 37.2961 31.4954 37.4895 31.302C37.6829 31.1086 37.9452 31 38.2188 31ZM58.7489 37.1875H36.2491C35.6303 37.1875 35.125 37.6495 35.125 38.2188V40.2812C35.125 40.8505 35.6283 41.3125 36.2491 41.3125H58.7509C59.3697 41.3125 59.875 40.8505 59.875 40.2812V38.2188C59.875 37.6495 59.3718 37.1875 58.7489 37.1875ZM50.2555 57.3794C52.8501 57.3794 54.3805 55.1787 54.3805 51.4559C54.3805 47.467 52.7697 45.9531 50.3524 45.9531C48.4426 45.9531 46.6461 47.3391 46.6461 49.6842C46.6461 52.0767 48.3456 53.3348 50.1029 53.3348C51.6415 53.3348 52.6398 52.5593 52.9553 51.7054H53.011C53.0028 54.4197 52.0602 56.1687 50.3194 56.1687C48.9499 56.1687 48.2404 55.2406 48.1538 54.4774H46.7431C46.84 55.7974 47.9682 57.3773 50.2555 57.3773V57.3794ZM44.2949 46.1697H42.9893C42.0546 46.6691 41.1503 47.2235 40.2812 47.83V49.2634C41.0547 48.7334 42.2798 47.9847 42.8759 47.6609H42.9006V57.169H44.2928V46.1676L44.2949 46.1697Z" fill="white"/>
<defs>
<filter id="filter0_d_3401_1294" x="0.9" y="0.9" width="94.2" height="94.2" filterUnits="userSpaceOnUse" color-interpolation-filters="sRGB">
<feFlood flood-opacity="0" result="BackgroundImageFix"/>
<feColorMatrix in="SourceAlpha" type="matrix" values="0 0 0 0 0 0 0 0 0 0 0 0 0 0 0 0 0 0 127 0" result="hardAlpha"/>
<feOffset/>
<feGaussianBlur stdDeviation="4.55"/>
<feComposite in2="hardAlpha" operator="out"/>
<feColorMatrix type="matrix" values="0 0 0 0 0.922517 0 0 0 0 0.922517 0 0 0 0 0.922517 0 0 0 0.25 0"/>
<feBlend mode="normal" in2="BackgroundImageFix" result="effect1_dropShadow_3401_1294"/>
<feBlend mode="normal" in="SourceGraphic" in2="effect1_dropShadow_3401_1294" result="shape"/>
</filter>
<radialGradient id="paint0_radial_3401_1294" cx="0" cy="0" r="1" gradientUnits="userSpaceOnUse" gradientTransform="translate(48 48) rotate(90) scale(33.4627)">
<stop stop-color="#65B3EB"/>
<stop offset="1" stop-color="#3981F1"/>
</radialGradient>
</defs>
</svg>
