<svg width="95" height="96" viewBox="0 0 95 96" fill="none" xmlns="http://www.w3.org/2000/svg">
<g filter="url(#filter0_d_3401_1293)">
<rect x="9.85748" y="10" width="75.528" height="76" rx="14" fill="url(#paint0_radial_3401_1293)"/>
</g>
<path d="M56.7237 43.3329H66.8524C66.9747 43.333 67.0945 43.3691 67.1978 43.4372C67.301 43.5052 67.3834 43.6023 67.4353 43.717C67.4872 43.8318 67.5065 43.9595 67.4908 44.0852C67.4752 44.2108 67.4253 44.3293 67.3469 44.4267L62.2826 50.7223C62.2222 50.7974 62.1466 50.8578 62.0611 50.8992C61.9756 50.9406 61.8824 50.9621 61.788 50.9621C61.6937 50.9621 61.6005 50.9406 61.515 50.8992C61.4295 50.8578 61.3539 50.7974 61.2935 50.7223L56.2291 44.4267C56.1508 44.3293 56.1009 44.2108 56.0853 44.0852C56.0696 43.9595 56.0889 43.8318 56.1408 43.717C56.1927 43.6023 56.2751 43.5052 56.3783 43.4372C56.4815 43.3691 56.6014 43.333 56.7237 43.3329ZM28.3883 48.6682H38.5169C38.6393 48.6682 38.7591 48.632 38.8624 48.564C38.9656 48.496 39.048 48.3989 39.0999 48.2842C39.1518 48.1694 39.171 48.0417 39.1554 47.916C39.1397 47.7903 39.0898 47.6719 39.0115 47.5745L33.9472 41.2789C33.8868 41.2038 33.8111 41.1434 33.7257 41.102C33.6402 41.0605 33.547 41.0391 33.4526 41.0391C33.3582 41.0391 33.265 41.0605 33.1796 41.102C33.0941 41.1434 33.0185 41.2038 32.958 41.2789L27.8937 47.5745C27.8154 47.6719 27.7655 47.7903 27.7498 47.916C27.7342 48.0417 27.7534 48.1694 27.8053 48.2842C27.8572 48.3989 27.9396 48.496 28.0429 48.564C28.1461 48.632 28.2659 48.6682 28.3883 48.6682Z" fill="white"/>
<path fill-rule="evenodd" clip-rule="evenodd" d="M47.6209 32.6618C43.623 32.6618 40.0476 34.5478 37.6854 37.5115C37.5799 37.6531 37.4481 37.7713 37.2976 37.859C37.1471 37.9468 36.9812 38.0023 36.8096 38.0222C36.638 38.0422 36.4643 38.0263 36.2987 37.9753C36.1332 37.9244 35.9793 37.8395 35.8461 37.7257C35.7129 37.6119 35.6031 37.4715 35.5234 37.3129C35.4436 37.1544 35.3954 36.9808 35.3817 36.8025C35.3681 36.6242 35.3891 36.445 35.4437 36.2753C35.4983 36.1056 35.5852 35.9491 35.6994 35.8149C37.5854 33.4501 40.0877 31.6961 42.9086 30.7615C45.7294 29.8268 48.7501 29.751 51.6114 30.5428C54.4727 31.3347 57.0542 32.961 59.0488 35.2283C61.0434 37.4956 62.3672 40.3084 62.8627 43.3324H60.243C59.6492 40.3196 58.0684 37.6119 55.7683 35.6674C53.4682 33.7229 50.59 32.6611 47.6209 32.6618ZM34.9987 48.6677C35.4864 51.1342 36.6379 53.4076 38.3203 55.2251C40.0028 57.0426 42.1474 58.3301 44.5064 58.9389C46.8655 59.5476 49.3427 59.4527 51.6519 58.6652C53.9611 57.8777 56.0081 56.4297 57.5563 54.4885C57.6618 54.3469 57.7937 54.2287 57.9441 54.141C58.0946 54.0532 58.2605 53.9977 58.4321 53.9778C58.6037 53.9578 58.7774 53.9737 58.943 54.0247C59.1085 54.0756 59.2624 54.1605 59.3956 54.2743C59.5288 54.3881 59.6386 54.5285 59.7183 54.6871C59.7981 54.8456 59.8463 55.0192 59.86 55.1975C59.8736 55.3758 59.8526 55.555 59.798 55.7247C59.7435 55.8944 59.6565 56.0509 59.5423 56.1851C57.6563 58.5499 55.154 60.3039 52.3331 61.2385C49.5123 62.1732 46.4916 62.2491 43.6303 61.4572C40.769 60.6653 38.1875 59.039 36.1929 56.7717C34.1983 54.5044 32.8745 51.6916 32.379 48.6677H34.9987Z" fill="white"/>
<defs>
<filter id="filter0_d_3401_1293" x="0.757483" y="0.9" width="93.728" height="94.2" filterUnits="userSpaceOnUse" color-interpolation-filters="sRGB">
<feFlood flood-opacity="0" result="BackgroundImageFix"/>
<feColorMatrix in="SourceAlpha" type="matrix" values="0 0 0 0 0 0 0 0 0 0 0 0 0 0 0 0 0 0 127 0" result="hardAlpha"/>
<feOffset/>
<feGaussianBlur stdDeviation="4.55"/>
<feComposite in2="hardAlpha" operator="out"/>
<feColorMatrix type="matrix" values="0 0 0 0 0.922517 0 0 0 0 0.922517 0 0 0 0 0.922517 0 0 0 0.25 0"/>
<feBlend mode="normal" in2="BackgroundImageFix" result="effect1_dropShadow_3401_1293"/>
<feBlend mode="normal" in="SourceGraphic" in2="effect1_dropShadow_3401_1293" result="shape"/>
</filter>
<radialGradient id="paint0_radial_3401_1293" cx="0" cy="0" r="1" gradientUnits="userSpaceOnUse" gradientTransform="translate(47.6215 48) rotate(90) scale(33.4627 33.2548)">
<stop stop-color="#65B3EB"/>
<stop offset="1" stop-color="#3981F1"/>
</radialGradient>
</defs>
</svg>
