<?xml version="1.0" standalone="no"?>
<!DOCTYPE svg PUBLIC "-//W3C//DTD SVG 20010904//EN"
 "http://www.w3.org/TR/2001/REC-SVG-20010904/DTD/svg10.dtd">
<svg version="1.0" xmlns="http://www.w3.org/2000/svg"
 width="223.000000pt" height="223.000000pt" viewBox="0 0 223.000000 223.000000"
 preserveAspectRatio="xMidYMid meet">
<metadata>
Created by potrace 1.14, written by Peter Selinger 2001-2017
</metadata>
<g transform="translate(0.000000,223.000000) scale(0.100000,-0.100000)"
fill="#000000" stroke="none">
<path d="M993 1839 c-146 -25 -250 -68 -361 -151 -68 -50 -602 -578 -602 -594
0 -17 535 -546 605 -599 55 -41 97 -64 175 -98 68 -29 72 -29 65 -4 -19 63
-79 141 -207 266 -76 74 -140 143 -144 153 -8 27 13 73 39 85 37 17 71 -2 149
-79 87 -86 149 -129 227 -159 166 -62 365 -40 506 55 17 12 69 58 116 103 48
46 90 83 95 84 5 0 18 2 28 4 11 2 31 -8 47 -24 47 -48 36 -69 -115 -216 -127
-124 -165 -173 -201 -257 -15 -37 -15 -38 7 -29 75 29 161 75 217 116 101 75
591 570 591 598 0 28 -528 554 -611 609 -203 133 -400 176 -626 137z m262
-450 c113 -42 199 -166 199 -289 0 -96 -26 -163 -89 -224 -70 -69 -75 -72
-134 -90 -155 -46 -321 28 -390 174 -21 45 -26 70 -26 135 0 69 4 89 30 139
47 94 142 162 245 176 57 8 102 2 165 -21z"/>
</g>
</svg>
